# xmcd CD database file
#
# Track frame offsets:
#	150
#	26606
#	48055
#	70158
#	93352
#	109873
#	136805
#	167066
#	199071
#	217679
#
# Disc length: 3144 seconds
#
# Revision: 1
# Processed by: cddbd v1.5.2PL0 Copyright (c) Steve Scherf et al.
# Submitted via: CDex 1.51
#
DISCID=7d0c460a
DTITLE=Deep Forest and Rahul Sharma - Deep India
DYEAR=2013
DGENRE=New Age
TTITLE0=Viva Madikeri (Karnataka)
TTITLE1=Bihu (Assam)
TTITLE2=Rajasthan
TTITLE3=Dhol Lejhim (Maharashtra)
TTITLE4=Thilelo (Kerala)
TTITLE5=Punjab
TTITLE6=The Village (Sindh)
TTITLE7=Mountain Ballad (Jammu)
TTITLE8=Sounds Of The Village
TTITLE9=Viva Madikeri (radio edit)
EXTD=YEAR: 2013
EXTT0=
EXTT1=
EXTT2=
EXTT3=
EXTT4=
EXTT5=
EXTT6=
EXTT7=
EXTT8=
EXTT9=
PLAYORDER=
